<svg xmlns="http://www.w3.org/2000/svg" viewBox="0 0 21.76 21.76"><title>calendar</title><circle cx="10.88" cy="10.88" r="10.38" style="fill:none;stroke:#fff;stroke-miterlimit:10"/><path d="M14.74,7.12V5.77h-.2V7.12H13V5.77h-.19V7.12H11.07V5.77h-.19V7.12H9.14V5.77H9V7.12H7.41V5.77h-.2V7.12H5.86V16h10V7.12Zm1,8.68H6.05v-6H15.7Zm-9.65-6V7.5H7.21v.77h.2V7.5H9v.77h.19V7.5h1.74v.77h.19V7.5h1.74v.77H13V7.5h1.54v.77h.2V7.5h1V9.82Z" style="fill:#fff"/><path d="M8.2,12.57a.62.62,0,1,0,0-1.23.62.62,0,0,0,0,1.23Z" style="fill:#fff"/><path d="M10,12.57a.62.62,0,1,0,0-1.23.62.62,0,0,0,0,1.23Z" style="fill:#fff"/><path d="M11.89,12.57a.62.62,0,0,0,0-1.23.62.62,0,1,0,0,1.23Z" style="fill:#fff"/><path d="M13.73,12.57a.62.62,0,1,0-.61-.62A.61.61,0,0,0,13.73,12.57Z" style="fill:#fff"/><circle cx="8.2" cy="13.8" r="0.61" style="fill:#fff"/><circle cx="10.04" cy="13.8" r="0.61" style="fill:#fff"/><path d="M11.89,14.41a.61.61,0,0,0,.61-.61.61.61,0,0,0-.61-.62.62.62,0,0,0-.62.62A.61.61,0,0,0,11.89,14.41Z" style="fill:#fff"/><path d="M13.73,14.41a.61.61,0,0,0,.61-.61.61.61,0,1,0-1.22,0A.61.61,0,0,0,13.73,14.41Z" style="fill:#fff"/></svg>