<svg xmlns="http://www.w3.org/2000/svg" xmlns:xlink="http://www.w3.org/1999/xlink" viewBox="0 0 406 213.2"><defs><clipPath id="a"><path d="M399.12,105.19a87.83,87.83,0,1,1-87.83-87.83,87.83,87.83,0,0,1,87.83,87.83" style="fill:none"/></clipPath><radialGradient id="b" cx="61.98" cy="374.38" r="1.58" gradientTransform="matrix(85.56, 0, 0, -85.56, -5017.98, 32103.66)" gradientUnits="userSpaceOnUse"><stop offset="0" stop-color="#fff"/><stop offset="0.05" stop-color="#e6f7fe"/><stop offset="0.16" stop-color="#a6e4fa"/><stop offset="0.31" stop-color="#44c7f4"/><stop offset="0.38" stop-color="#32bff0"/><stop offset="0.55" stop-color="#0eb0e8"/><stop offset="0.64" stop-color="#00aae5"/><stop offset="0.78" stop-color="#007bc2"/><stop offset="0.89" stop-color="#005cab"/><stop offset="0.95" stop-color="#0080c5"/><stop offset="1" stop-color="#00a0dd"/></radialGradient></defs><title>logo</title><g style="clip-path:url(#a)"><rect x="223.46" y="17.36" width="175.67" height="175.66" style="fill:url(#b)"/></g><rect x="83.64" y="122.45" width="246.12" height="25.26" style="fill:#fff"/><path d="M12.49,82.54c-3.41-4.84-6-6.49-12-6.6V73.42c3.52.11,6.93.35,10.45.46,2.86-.11,5.83-.35,8.69-.46L66,130.09h.22V99.5c0-4.73,0-12.44-1-17-1.32-6.16-4.29-5.72-9.78-6.6V73.42c4.06.11,8,.35,12.09.46,3.85-.11,7.6-.35,11.67-.46v2.52c-4.07.44-6.94.11-8.37,4.84-1.09,3.53-1.32,14.87-1.32,19.28v47.41h-3.3c-2.42-3-4.83-6-7.25-9.13L16,86.19h-.22v37c0,4.07,0,12.32,1.65,16.07,1.87,4.3,5.5,4.08,9.57,4.52v2.52c-4.18-.11-8.47-.34-12.65-.46-4.07.12-8.14.35-12.21.46v-2.52c4.29-.44,8.36-.66,9.46-5.4.88-4,.88-10.9.88-15.19V82.54" style="fill:#fff;stroke:#fff;stroke-miterlimit:2"/><path d="M89.68,86c0-2.1,0-7-.66-8.74C88.16,75,85.46,75,83.34,75V73.2h32.81v10h-1.49C113.41,75.48,110,75,103,75H98.18c-2.07,0-1.74-.2-1.74,2.68V93.27c9.15.41,10.49-3.35,10.89-8.08h1.48c0,3-.09,6-.22,9,.13,2.73.17,5.51.22,8.2h-1.48c-.93-6.93-4.48-7.25-10.89-7.25V105.9c0,2,0,5.08,1.2,6.66,1.74,2.31,5.88,2.44,8.55,2.37,6.82-.12,11.28-1,12.15-8.83h1.53l-.6,10.65H83.34v-1.48c2.12,0,4.82,0,5.68-2.24.66-1.8.66-6.69.66-8.84V86" style="fill:#fff;stroke:#fff;stroke-miterlimit:2"/><path d="M163.86,111.36c1.84,2.31,3.56,4.28,6.73,4v1.5c-3.11-.08-6.21-.17-9.31-.23-3.3.06-6.67.15-10,.23v-1.5c.85-.2,4.95.33,4.95-1.32,0-1.45-2.57-4.62-3.5-5.81l-7.92-10.31-4.42,5.62c-1.53,2-5.62,7.21-5.62,9.65s3.69,2.11,5.15,2.17v1.5c-2.64-.08-5.35-.17-8-.23s-5.15.15-7.73.23v-1.5c4.49-.39,6.34-2.44,8.92-5.75l10.37-13.2-13.6-17.32c-1.92-2.45-3.11-4.23-6.41-4.42v-1.5l9,.23,9.77-.23v1.5c-1.71,0-4.89-.08-4.89,1.78,0,1.25,1.66,3.23,2.31,4.16l8.46,10.84,2.64-3.64c1.65-2.17,6.27-7.86,6.27-10.51s-2.9-2.18-4.76-2.63v-1.5l7.93.23,6.87-.23v1.5a8.8,8.8,0,0,0-4.56,1.57c-1.52,1.2-4,4.76-5.21,6.42L149.26,93l14.6,18.37" style="fill:#fff;stroke:#fff;stroke-miterlimit:2"/><path d="M213.9,83.44h-1.78c-.4-6.47-2.9-8.19-9.09-8.19-2.44,0-6.39-.31-6.39,1.79v31.33c0,4.9.92,6.75,7.31,7v1.5c-3.62-.08-7.31-.17-10.91-.23s-6.94.15-10.52.23v-1.5c6.43-.26,7.36-2.11,7.36-7V77c0-2-2.92-1.79-5.57-1.79-6.57,0-9.75.34-10,8.19h-1.49V73.19h40.5l.59,10.25" style="fill:#fff;stroke:#fff;stroke-miterlimit:2"/><path d="M244.08,98.87l7.29-18.63,7.23,18.63Zm-.86,2.07h16.25l2.55,6.8a15.6,15.6,0,0,1,1.32,5.14c0,2.56-3.22,2.44-5.06,2.5v1.5c3.15-.08,6.38-.17,9.54-.23s6.27.15,9.38.23v-1.5c-2.25-.26-4.23-.52-5.68-2.44-1.18-1.52-2.64-5.53-3.43-7.25L254.8,72.19h-2.25l-10,26c-1.85,4.18-3.62,8.33-5.47,12.55-1.32,3.24-2.78,4.29-6.36,4.68v1.5c2.31-.08,4.57-.17,6.89-.23s4.81.15,7.24.23v-1.5c-2-.2-5.33,0-5.33-2.83,0-2.58,2.17-7.45,3.16-10l.58-1.65" style="fill:#fff"/><path d="M316.42,73.43h1l.53,12.93h-1.52c-1.1-7.32-6.26-12.48-13.94-12.48-11.83,0-15.41,11.7-15.41,21.59s3.84,20.6,15.55,20.6c9.26,0,12.63-6.6,14.61-14.44h1.13v14.44h-.81L316,112.64a22,22,0,0,1-14.6,4.92c-13.44,0-22.54-8.62-22.54-22.09s9.7-23.08,23.13-23.08c5.43,0,8.86,1.24,13.43,4.06l1-3" style="fill:#fff"/><path d="M393.31,90.62h-3C389.66,79.83,385.48,77,375.16,77c-4.07,0-10.65-.55-10.65,3v52.2c0,8.15,1.53,11.23,12.18,11.67v2.52c-6-.11-12.18-.34-18.24-.46-5.83.12-11.56.35-17.52.46v-2.52c10.7-.44,12.24-3.52,12.24-11.67V79.94c0-3.31-4.85-3-9.26-3-10.92,0-16.2.56-16.64,13.66h-2.53V73.43h67.57l1,17.19" style="fill:#fff"/><polygon points="96.78 130.16 92.11 130.16 92.11 128.21 104.06 128.21 104.06 130.16 99.4 130.16 99.4 140.65 96.78 140.65 96.78 130.16" style="fill:#231f20"/><polygon points="127.41 128.21 130.02 128.21 130.02 133.05 137.72 133.05 137.72 128.21 140.32 128.21 140.32 140.65 137.72 140.65 137.72 135.01 130.02 135.01 130.02 140.65 127.41 140.65 127.41 128.21" style="fill:#231f20"/><polygon points="163.66 128.21 174.48 128.21 174.48 130.16 166.28 130.16 166.28 133.3 174.14 133.3 174.14 135.26 166.28 135.26 166.28 138.69 174.61 138.69 174.61 140.65 163.66 140.65 163.66 128.21" style="fill:#231f20"/><path d="M202.85,135.62l2.16-5.26,2.12,5.26Zm-4.9,5h2.82l1.3-3.09h5.85l1.31,3.09h2.91l-5.54-12.44h-3.1L198,140.65" style="fill:#231f20"/><polygon points="240.15 130.16 235.48 130.16 235.48 128.21 247.43 128.21 247.43 130.16 242.76 130.16 242.76 140.65 240.15 140.65 240.15 130.16" style="fill:#231f20"/><path d="M273.39,133.79v-3.63h4.49c1.38,0,2.24.51,2.24,1.8s-.79,1.83-2.24,1.83Zm-2.62,6.86h2.62v-4.91h4.42c1.92,0,2.16,1.25,2.16,3a4.2,4.2,0,0,0,.31,1.87h2.83a5.18,5.18,0,0,1-.52-2.67c0-1.75-.33-3-1.82-3.35v0a3,3,0,0,0,2.05-3c0-1.93-1-3.38-4.19-3.38h-7.86v12.44" style="fill:#231f20"/><polygon points="306.45 128.21 317.25 128.21 317.25 130.16 309.06 130.16 309.06 133.3 316.92 133.3 316.92 135.26 309.06 135.26 309.06 138.69 317.39 138.69 317.39 140.65 306.45 140.65 306.45 128.21" style="fill:#231f20"/><rect x="227.78" y="43.62" width="1.76" height="13.21" transform="translate(54.84 207.04) rotate(-54.44)" style="fill:#fff;stroke:#fff;stroke-miterlimit:2;stroke-width:0.75px"/><polygon points="238.35 29.08 239.91 27.78 252.74 31.14 252.75 31.05 245.9 22.8 247.24 21.69 255.69 31.85 254.12 33.15 241.16 29.73 241.11 29.78 248.14 38.12 246.8 39.24 238.35 29.08" style="fill:#fff;stroke:#fff;stroke-miterlimit:2;stroke-width:0.75px"/><polygon points="265.38 10.76 274.64 6.85 275.24 8.25 271.44 9.85 275.99 20.62 274.37 21.3 269.82 10.54 265.98 12.16 265.38 10.76" style="fill:#fff;stroke:#fff;stroke-miterlimit:2;stroke-width:0.75px"/><rect x="295.74" y="1.51" width="1.75" height="13.21" transform="matrix(0.99, -0.15, 0.15, 0.99, 2.08, 44.08)" style="fill:#fff;stroke:#fff;stroke-miterlimit:2;stroke-width:0.75px"/><polygon points="318.94 0.42 320.98 0.7 324.41 12.55 324.49 12.56 331.01 2.06 333.03 2.34 331.25 15.43 329.63 15.21 331.22 4.38 331.12 4.36 324.95 14.57 323.45 14.37 320.25 2.88 320.12 2.87 318.77 13.73 317.16 13.51 318.94 0.42" style="fill:#fff;stroke:#fff;stroke-miterlimit:2;stroke-width:0.75px"/><path d="M358.37,11.21l1.78.89-.93,14.31-1.7-.85.24-3.17-6.18-3.1-2.42,2.09-1.68-.84Zm.09,2-5.74,5.08,5.16,2.58.64-7.63Z" style="fill:#fff;stroke:#fff;stroke-miterlimit:2;stroke-width:0.75px"/><polygon points="380.07 25.09 387.53 31.85 386.5 32.98 383.44 30.2 375.59 38.87 374.29 37.69 382.14 29.02 379.04 26.22 380.07 25.09" style="fill:#fff;stroke:#fff;stroke-miterlimit:2;stroke-width:0.75px"/><polygon points="400.86 47.87 405.48 55.12 404.22 55.92 400.54 50.14 397.22 52.25 400.44 57.31 399.19 58.11 395.97 53.05 391.91 55.62 395.66 61.51 394.4 62.31 389.73 54.96 400.86 47.87" style="fill:#fff;stroke:#fff;stroke-miterlimit:2;stroke-width:0.75px"/><path d="M239.74,167.17l3.1,3.18a5,5,0,0,1,1.63,3.26,4,4,0,0,1-1.37,3.06,4.17,4.17,0,0,1-3.16,1.38,5,5,0,0,1-3.24-1.72l-2-2-3.67,3.57-1.12-1.16Zm0,2.22-3.94,3.84,1.94,2a3.39,3.39,0,0,0,2.1,1.18,2.67,2.67,0,0,0,2-.93,2.6,2.6,0,0,0,.94-2,3.36,3.36,0,0,0-1.11-2.12Z" style="fill:#fff;stroke:#fff;stroke-miterlimit:2;stroke-width:0.75px"/><path d="M261.19,184.39a6,6,0,0,1,1.71,1.53,5.47,5.47,0,0,1,.94,2,7,7,0,0,1,.07,2.92,8.72,8.72,0,0,1-1.18,2.94,8.23,8.23,0,0,1-1.92,2.22,7.54,7.54,0,0,1-2.42,1.34,5.66,5.66,0,0,1-2.42.24,6,6,0,0,1-2.29-.83,5.75,5.75,0,0,1-1.83-1.74,5.39,5.39,0,0,1-.9-2.3A7.41,7.41,0,0,1,251,190a9,9,0,0,1,1.11-2.66,8.82,8.82,0,0,1,1.88-2.24,7.21,7.21,0,0,1,2.39-1.3,5.66,5.66,0,0,1,2.45-.24,5.9,5.9,0,0,1,2.33.81m-.78,1.3a3.82,3.82,0,0,0-3.53-.27,7.47,7.47,0,0,0-4.29,7,4,4,0,0,0,5.42,3.3,7.51,7.51,0,0,0,4.27-7.05,3.82,3.82,0,0,0-1.87-3" style="fill:#fff;stroke:#fff;stroke-miterlimit:2;stroke-width:0.75px"/><polygon points="276.88 192.87 278.46 193.31 277.69 205.13 277.76 205.13 284.17 194.94 285.73 195.38 285.8 207.44 285.89 207.46 291.59 197.05 293.16 197.5 286.16 209.73 284.47 209.25 284.35 197.3 284.3 197.29 277.93 207.39 276.22 206.9 276.88 192.87" style="fill:#fff;stroke:#fff;stroke-miterlimit:2;stroke-width:0.75px"/><polygon points="305.77 198.85 313.75 199.13 313.69 200.67 307.34 200.44 307.19 204.53 312.75 204.74 312.7 206.27 307.13 206.06 306.95 211.05 313.41 211.28 313.35 212.81 305.28 212.52 305.77 198.85" style="fill:#fff;stroke:#fff;stroke-miterlimit:2;stroke-width:0.75px"/><path d="M327.74,198.08l4.82-.92a5.15,5.15,0,0,1,3.39.29,3.25,3.25,0,0,1,1.62,2.4,3.4,3.4,0,0,1-.24,2.22,2.57,2.57,0,0,1-1.56,1.32v.05a2.28,2.28,0,0,1,1.78.33,3,3,0,0,1,.88,1.83c0,.14.06.29.08.45s0,.26.05.29a13.35,13.35,0,0,0,.6,2.32,2.53,2.53,0,0,0,.75,1l-1.9.36a2.94,2.94,0,0,1-.48-.81,6.33,6.33,0,0,1-.34-1.23l-.22-1.19a3.89,3.89,0,0,0-.81-2,2.09,2.09,0,0,0-1.67-.19l-3.72.71,1.12,5.92-1.59.3Zm1.87,1.19.87,4.56,3.22-.62a3.14,3.14,0,0,0,2-1,2.21,2.21,0,0,0,.36-1.91,2,2,0,0,0-1-1.48,3.31,3.31,0,0,0-2.17-.19Z" style="fill:#fff;stroke:#fff;stroke-miterlimit:2;stroke-width:0.75px"/><polygon points="349.99 192.15 357.29 188.94 357.91 190.35 352.08 192.91 353.72 196.65 358.96 194.34 359.58 195.75 354.33 198.06 356.95 204.03 355.48 204.67 349.99 192.15" style="fill:#fff;stroke:#fff;stroke-miterlimit:2;stroke-width:0.75px"/><path d="M368.73,182.34l1.3-1,4.77,6.23a14.89,14.89,0,0,0,1.3,1.52,3.76,3.76,0,0,0,1,.69,2.46,2.46,0,0,0,1.64.16,4.59,4.59,0,0,0,1.82-.89,4.65,4.65,0,0,0,1.33-1.51,2.58,2.58,0,0,0,.28-1.63,4,4,0,0,0-.4-1.08,9.9,9.9,0,0,0-1-1.46l-4.94-6.45,1.29-1,5.23,6.83a5.76,5.76,0,0,1,1.46,4.06,6.44,6.44,0,0,1-6.28,4.81,5.74,5.74,0,0,1-3.54-2.47Z" style="fill:#fff;stroke:#fff;stroke-miterlimit:2;stroke-width:0.75px"/><polygon points="386.82 166.05 387.83 164.77 397.38 172.27 401.4 167.14 402.61 168.09 397.58 174.49 386.82 166.05" style="fill:#fff;stroke:#fff;stroke-miterlimit:2;stroke-width:0.75px"/></svg>