<svg xmlns="http://www.w3.org/2000/svg" viewBox="0 0 20.77 20.72"><title>ticket</title><path d="M16.57,2.39h0l.21-.2L14.61,0,12,2.58h0L3.49,11.05h0L0,14.52,2.17,16.7l.2-.2a1.28,1.28,0,0,1,.92-.38,1.3,1.3,0,0,1,.91,2.21h0l-.21.2,2.17,2.18,3.1-3.08h0l8.51-8.45h0l3-3L18.6,4l-.2.2a1.29,1.29,0,0,1-1.83-1.83ZM6.16,19.91,4.79,18.52a1.87,1.87,0,0,0-1.5-3,1.9,1.9,0,0,0-1.11.35L.81,14.52l2.68-2.66.1.09-.1.08L8.7,17.27l.07-.1.08.08Zm3.1-3.08-.5-.51h0L4.42,12h0l-.52-.53,8.1-8,2.68,2.7,2.67,2.69Zm9.33-12L20,6.2,17.77,8.38l-2.68-2.7L12.41,3,14.61.81,16,2.19a1.87,1.87,0,0,0,2.61,2.62Z" style="fill:rgba(255,255,255,0.3)"/></svg>